<mxfile host="app.diagrams.net" modified="2023-07-11T20:10:05.162Z" agent="Mozilla/5.0 (Windows NT 10.0; Win64; x64) AppleWebKit/537.36 (KHTML, like Gecko) Chrome/114.0.0.0 Safari/537.36" version="21.6.1" etag="8BWqPWEw-ES3b-_6IGOH" type="github">
  <diagram name="Page-1" id="BOWS87Qfyw2gq2pMRIxz">
    <mxGraphModel>
      <root>
        <mxCell id="0" />
        <mxCell id="1" parent="0" />
      </root>
    </mxGraphModel>
  </diagram>
</mxfile>
